<!DOCTYPE svg PUBLIC "-//W3C//DTD SVG 1.1//EN" "http://www.w3.org/Graphics/SVG/1.1/DTD/svg11.dtd">
<!-- Uploaded to: SVG Repo, www.svgrepo.com, Transformed by: SVG Repo Mixer Tools -->
<svg fill="#83ffdc" height="800px" width="800px" version="1.1" id="Layer_1" xmlns="http://www.w3.org/2000/svg" xmlns:xlink="http://www.w3.org/1999/xlink" viewBox="0 0 512 512" xml:space="preserve" stroke="#83ffdc" stroke-width="0.00512">
<g id="SVGRepo_bgCarrier" stroke-width="0"/>
<g id="SVGRepo_tracerCarrier" stroke-linecap="round" stroke-linejoin="round" stroke="#CCCCCC" stroke-width="7.168000000000001"/>
<g id="SVGRepo_iconCarrier"> <g> <g> <path d="M467.161,0H119.575c-11.183,0-20.281,9.099-20.281,20.281v5.19c0,4.581,3.713,8.294,8.294,8.294 c4.58,0,8.294-3.712,8.294-8.294v-5.19c0-2.037,1.657-3.693,3.692-3.693H467.16c2.036,0,3.692,1.657,3.692,3.693v366.163 c0,4.581,3.713,8.294,8.294,8.294c4.58,0,8.294-3.712,8.294-8.294V20.281h0.001C487.441,9.099,478.343,0,467.161,0z"/> </g> </g> <g> <g> <path d="M479.147,450.556c-4.58,0-8.294,3.712-8.294,8.294v32.87c0,2.037-1.657,3.693-3.692,3.693H119.575 c-2.036,0-3.692-1.657-3.692-3.693v-9.298c0-4.581-3.713-8.294-8.294-8.294c-4.58,0-8.294,3.712-8.294,8.294v9.298 C99.294,502.901,108.391,512,119.575,512h347.586c11.182,0,20.28-9.099,20.28-20.281v-32.87 C487.441,454.268,483.727,450.556,479.147,450.556z"/> </g> </g> <g> <g> <path d="M123.478,55.09H70.263c-4.58,0-8.294,3.712-8.294,8.294v385.231c0,4.581,3.713,8.294,8.294,8.294h53.216 c4.58,0.001,8.293-3.712,8.293-8.293V63.384C131.772,58.803,128.059,55.09,123.478,55.09z M115.186,113.031H94.618 c-4.58,0-8.294,3.712-8.294,8.294c0,4.581,3.713,8.294,8.294,8.294h20.567v28.305H94.618c-4.58,0-8.294,3.712-8.294,8.294 s3.713,8.294,8.294,8.294h20.567v28.304H94.618c-4.58,0-8.294,3.712-8.294,8.294s3.713,8.294,8.294,8.294h20.567v28.304H94.618 c-4.58,0-8.294,3.712-8.294,8.294s3.713,8.294,8.294,8.294h20.567v28.305H94.618c-4.58,0-8.294,3.712-8.294,8.294 s3.713,8.294,8.294,8.294h20.567v28.304H94.618c-4.58,0-8.294,3.712-8.294,8.294s3.713,8.294,8.294,8.294h20.567v28.305H94.618 c-4.58,0-8.294,3.712-8.294,8.294s3.713,8.294,8.294,8.294h20.567v41.354H78.557v-0.001V71.678h36.628V113.031z"/> </g> </g> <g> <g> <path d="M426.064,74.758H165.773c-4.58,0-8.294,3.712-8.294,8.294v39.581c0,4.581,3.713,8.294,8.294,8.294 c4.58,0,8.294-3.712,8.294-8.294V91.345H417.77v329.311H174.067v-34.251c0-4.581-3.713-8.294-8.294-8.294 c-4.58,0-8.294,3.712-8.294,8.294v42.545c0,4.581,3.713,8.294,8.294,8.294h260.291c4.58,0,8.294-3.712,8.294-8.294V83.051 C434.357,78.47,430.644,74.758,426.064,74.758z"/> </g> </g> <g> <g> <path d="M382.916,196.924c-0.343-2.175-1.537-4.124-3.318-5.417c-1.78-1.294-4.002-1.821-6.178-1.48l-62.454,9.944l22.313-59.184 c1.617-4.285-0.547-9.069-4.832-10.686c-9.669-3.647-19.857-5.497-30.279-5.497c-47.312,0-85.803,38.491-85.803,85.803 s38.491,85.803,85.803,85.803s85.803-38.491,85.803-85.803C383.971,205.893,383.616,201.356,382.916,196.924z M298.169,279.623 c-38.166,0-69.215-31.05-69.215-69.215c0-38.166,31.05-69.215,69.215-69.215c5.607,0,11.125,0.661,16.489,1.972l-24.25,64.317 c-1.043,2.765-0.535,5.875,1.332,8.167c1.868,2.291,4.817,3.42,7.732,2.949l67.863-10.805c0.032,0.872,0.049,1.744,0.049,2.615 C367.384,248.573,336.334,279.623,298.169,279.623z"/> </g> </g> <g> <g> <path d="M370.471,327.053H225.865c-4.58,0-8.294,3.712-8.294,8.294c0,4.581,3.713,8.294,8.294,8.294h144.606 c4.58,0,8.294-3.712,8.294-8.294C378.765,330.765,375.053,327.053,370.471,327.053z"/> </g> </g> <g> <g> <path d="M370.471,369.056H225.865c-4.58,0-8.294,3.712-8.294,8.294c0,4.581,3.713,8.294,8.294,8.294h144.606 c4.58,0,8.294-3.712,8.294-8.294C378.765,372.768,375.053,369.056,370.471,369.056z"/> </g> </g> <g> <g> <path d="M187.479,145.038h-39.903c-4.58,0-8.294,3.713-8.294,8.294c0,4.581,3.713,8.294,8.294,8.294h31.609v162.979h-26.622 c-4.58,0-8.294,3.712-8.294,8.294c0,4.581,3.713,8.294,8.294,8.294h34.916c4.58,0,8.294-3.712,8.294-8.294V153.331 C195.773,148.75,192.06,145.038,187.479,145.038z"/> </g> </g> <g> <g> <path d="M44.825,324.605h-3.591c0.154-15.071,0.471-48.241,0.656-81.147c0.146-26.037,0.181-46.823,0.105-61.781 c-0.043-8.569-0.125-15.309-0.241-20.051h5.067c4.58,0,8.294-3.712,8.294-8.294s-3.713-8.294-8.294-8.294H33.32 c-2.317-0.096-4.64,0.738-6.332,2.43c-2.191,2.192-2.964,5.405-2.055,8.325c1.011,12.102,0.32,114.031-0.373,177.014 c-0.025,2.215,0.838,4.348,2.395,5.924c1.558,1.575,3.681,2.462,5.897,2.462h11.972c4.58,0,8.294-3.712,8.294-8.294 C53.119,328.317,49.405,324.605,44.825,324.605z"/> </g> </g> <g> <g> <path d="M153.628,182.464c-4.58,0-8.294,3.712-8.294,8.294v104.453c0,4.581,3.713,8.294,8.294,8.294 c4.58,0,8.294-3.712,8.294-8.294V190.758C161.921,186.177,158.208,182.464,153.628,182.464z"/> </g> </g> </g>
</svg>