<!DOCTYPE svg PUBLIC "-//W3C//DTD SVG 1.1//EN" "http://www.w3.org/Graphics/SVG/1.1/DTD/svg11.dtd">
<!-- Uploaded to: SVG Repo, www.svgrepo.com, Transformed by: SVG Repo Mixer Tools -->
<svg fill="#83ffdc" version="1.1" id="Layer_1" xmlns="http://www.w3.org/2000/svg" xmlns:xlink="http://www.w3.org/1999/xlink" viewBox="0 0 512 512" xml:space="preserve" width="800px" height="800px">
<g id="SVGRepo_bgCarrier" stroke-width="0"/>
<g id="SVGRepo_tracerCarrier" stroke-linecap="round" stroke-linejoin="round"/>
<g id="SVGRepo_iconCarrier"> <g> <g> <g> <path d="M80.06,329.36c0,24.792,20.24,44.896,45.2,44.896c24.96,0,45.2-20.104,45.2-44.896h-45.2v-44.896 C100.3,284.464,80.06,304.56,80.06,329.36z"/> <path d="M134.58,275.208v44.896h45.2C179.78,295.304,159.54,275.208,134.58,275.208z"/> <path d="M125.26,422.208c-24.96,0-45.2,20.096-45.2,44.896c0,24.792,20.24,44.896,45.2,44.896c24.96,0,45.2-20.104,45.2-44.896 h-45.2V422.208z"/> <path d="M134.58,412.952v44.896h45.2C179.78,433.056,159.54,412.952,134.58,412.952z"/> <rect x="213.7" y="302.736" width="220.84" height="16"/> <rect x="213.7" y="339.6" width="220.84" height="16"/> <rect x="213.7" y="436.16" width="220.84" height="16"/> <rect x="213.7" y="473.04" width="220.84" height="16"/> <path d="M166.308,202.384c53.416,0,96.72-43.008,96.72-96.064h-96.72V10.256c-53.416,0-96.72,43.008-96.72,96.064 C69.588,159.376,112.892,202.384,166.308,202.384z M150.308,27.84v78.48v16h16h79.096c-7.496,36.504-40.112,64.064-79.096,64.064 c-44.512,0-80.72-35.912-80.72-80.064C85.588,67.608,113.436,35.224,150.308,27.84z"/> <path d="M176.636,0v96.064h96.72C273.356,43.008,230.052,0,176.636,0z M192.636,17.576c31.656,6.336,56.656,31.104,63.096,62.48 h-63.096V17.576z"/> <rect x="296.492" y="152.08" width="16" height="33.784"/> <rect x="328.972" y="73.608" width="16" height="112.24"/> <rect x="361.452" y="16.576" width="16" height="169.28"/> <rect x="393.932" y="70.032" width="16" height="115.832"/> <rect x="426.412" y="124.552" width="16" height="61.312"/> </g> </g> </g> </g>
</svg>