<!DOCTYPE svg PUBLIC "-//W3C//DTD SVG 1.1//EN" "http://www.w3.org/Graphics/SVG/1.1/DTD/svg11.dtd">
<!-- Uploaded to: SVG Repo, www.svgrepo.com, Transformed by: SVG Repo Mixer Tools -->
<svg fill="#001C3B" version="1.1" id="Layer_1" xmlns="http://www.w3.org/2000/svg" xmlns:xlink="http://www.w3.org/1999/xlink" viewBox="0 0 512 512" xml:space="preserve" width="800px" height="800px">
<g id="SVGRepo_bgCarrier" stroke-width="0"/>
<g id="SVGRepo_tracerCarrier" stroke-linecap="round" stroke-linejoin="round"/>
<g id="SVGRepo_iconCarrier"> <g> <g> <g> <path d="M188.36,263.248l-12.416-10.776l-10.44,12.688l-35.048,42.592l-6.912-6.72l-11.784-11.464l-11.136,12.088L87.848,315.52 l-10.552,11.456l11.168,10.856l33.64,32.72l12.464,12.12l11.048-13.424l58.784-71.432l9.904-12.032l-11.76-10.216L188.36,263.248 z M133.264,359.08l-33.64-32.72l12.776-13.864l19.368,18.84l46.096-56.008l14.184,12.32L133.264,359.08z"/> <rect x="228.232" y="291.288" width="212.536" height="16"/> <rect x="228.232" y="326.976" width="212.536" height="16"/> <path d="M188.36,392.576L175.944,381.8l-10.44,12.688l-35.048,42.592l-6.912-6.72l-11.784-11.464l-11.136,12.088l-12.776,13.864 l-10.552,11.456l11.168,10.856l33.64,32.72L134.568,512l11.048-13.424l58.784-71.432l9.904-12.032l-11.76-10.216L188.36,392.576z M133.264,488.408l-33.64-32.72l12.776-13.864l19.368,18.84l46.096-56.008l14.184,12.32L133.264,488.408z"/> <rect x="228.232" y="420.608" width="212.536" height="16"/> <rect x="228.232" y="456.32" width="212.536" height="16"/> <path d="M148.384,172.28c45.16,0,81.776-36.608,81.776-81.776h-81.776V8.728c-45.16,0-81.776,36.608-81.776,81.776 C66.608,135.664,103.216,172.28,148.384,172.28z M132.384,26.696v63.808v16h16h63.808c-7.168,28.56-33.056,49.776-63.808,49.776 c-36.264,0-65.776-29.504-65.776-65.776C82.608,59.752,103.824,33.864,132.384,26.696z"/> <path d="M157.112,0v81.776h81.776C238.888,36.608,202.28,0,157.112,0z M173.112,17.968c23.44,5.88,41.928,24.368,47.808,47.808 h-47.808V17.968z"/> <path d="M354.888,172.28c45.168,0,81.776-36.608,81.776-81.776h-81.776V8.728c-45.16,0-81.776,36.608-81.776,81.776 C273.112,135.664,309.72,172.28,354.888,172.28z M338.888,26.696v63.808v16h16h63.808c-7.168,28.56-33.056,49.776-63.808,49.776 c-36.264,0-65.776-29.504-65.776-65.776C289.112,59.752,310.32,33.864,338.888,26.696z"/> <path d="M363.616,0v81.776h81.776C445.392,36.608,408.776,0,363.616,0z M379.616,17.968c23.44,5.88,41.928,24.368,47.808,47.808 h-47.808V17.968z"/> </g> </g> </g> </g>
</svg>