<!DOCTYPE svg PUBLIC "-//W3C//DTD SVG 1.1//EN" "http://www.w3.org/Graphics/SVG/1.1/DTD/svg11.dtd">
<!-- Uploaded to: SVG Repo, www.svgrepo.com, Transformed by: SVG Repo Mixer Tools -->
<svg fill="#001C3B" version="1.1" id="Layer_1" xmlns="http://www.w3.org/2000/svg" xmlns:xlink="http://www.w3.org/1999/xlink" viewBox="0 0 511.928 511.928" xml:space="preserve" width="800px" height="800px">
<g id="SVGRepo_bgCarrier" stroke-width="0"/>
<g id="SVGRepo_tracerCarrier" stroke-linecap="round" stroke-linejoin="round"/>
<g id="SVGRepo_iconCarrier"> <g> <g> <g> <rect x="296.12" y="82.264" width="110.992" height="36.08"/> <rect x="296.12" y="186.768" width="110.992" height="36.08"/> <rect x="296.12" y="134.512" width="110.992" height="36.08"/> <path d="M198.064,293.656l-12.384-10.68l-10.416,12.592l-28.696,34.688l-4.264-4.128l-11.752-11.368l-11.112,11.992 l-11.008,11.88l-10.64,11.488l11.256,10.888l28.992,28.04l12.432,12.024l11.024-13.328l50.656-61.224l9.984-12.064l-11.848-10.24 L198.064,293.656z M149.152,377.56l-28.992-28.04l11.008-11.88l16.696,16.152l39.72-48.016l12.224,10.56L149.152,377.56z"/> <rect x="230.992" y="318.304" width="183.144" height="16"/> <rect x="230.992" y="348.896" width="183.144" height="16"/> <path d="M198.064,404.512l-12.384-10.68l-10.416,12.592l-28.696,34.688l-4.264-4.128l-11.752-11.368l-11.112,11.992 l-11.008,11.88l-10.64,11.488l11.256,10.888l28.992,28.04l12.432,12.024l11.024-13.328l50.656-61.224l9.984-12.064l-11.848-10.24 L198.064,404.512z M149.152,488.408l-28.992-28.04l11.008-11.88l16.696,16.152l39.72-48.016l12.224,10.56L149.152,488.408z"/> <rect x="230.992" y="429.16" width="183.144" height="16"/> <rect x="230.992" y="459.728" width="183.144" height="16"/> <path d="M245.848,242.4V0.064L114.92,0v242.336l65.464-37.712L245.848,242.4z M130.92,214.656V16.008l98.936,0.048v198.64 l-41.472-23.928l-7.992-4.608l-7.992,4.6L130.92,214.656z"/> </g> </g> </g> </g>
</svg>