<!DOCTYPE svg PUBLIC "-//W3C//DTD SVG 1.1//EN" "http://www.w3.org/Graphics/SVG/1.1/DTD/svg11.dtd">
<!-- Uploaded to: SVG Repo, www.svgrepo.com, Transformed by: SVG Repo Mixer Tools -->
<svg fill="#001C3B" version="1.1" id="Capa_1" xmlns="http://www.w3.org/2000/svg" xmlns:xlink="http://www.w3.org/1999/xlink" width="800px" height="800px" viewBox="0 0 108.727 108.727" xml:space="preserve">
<g id="SVGRepo_bgCarrier" stroke-width="0"/>
<g id="SVGRepo_tracerCarrier" stroke-linecap="round" stroke-linejoin="round"/>
<g id="SVGRepo_iconCarrier"> <g> <path d="M0,7.988v92.75h108.727V7.988H0z M93.264,38.988v-14.5h12.321v-0.5H93.264v-13h12.462V54.84 c-0.132-0.129-0.28-0.237-0.426-0.352h0.285v-0.5h-1.058c-0.728-0.386-1.543-0.625-2.422-0.625s-1.693,0.239-2.421,0.625h-2.013 l-4.408-2.789V39.488h12.321v-0.5H93.264z M98.463,54.488h0.449c-0.065,0.053-0.131,0.105-0.194,0.161L98.463,54.488z M102.107,55.363c1.77,0,3.209,1.439,3.209,3.209s-1.439,3.209-3.209,3.209c-1.771,0-3.209-1.439-3.209-3.209 S100.337,55.363,102.107,55.363z M93.264,53.565l0.668,0.423h-0.668V53.565z M76.459,43.688c0-1.055,0.518-1.983,1.306-2.569v5.139 C76.977,45.672,76.459,44.743,76.459,43.688z M78.264,40.816c0.426-0.209,0.898-0.337,1.403-0.337c1.771,0,3.209,1.439,3.209,3.209 c0,1.77-1.438,3.209-3.209,3.209c-0.505,0-0.978-0.128-1.403-0.337V40.816z M82.721,39.488h10.043v11.395l-8.277-5.236 c0.248-0.605,0.39-1.265,0.39-1.958C84.877,41.96,84.021,40.437,82.721,39.488z M78.264,10.988h14.5v13h-14.5V10.988z M92.764,24.488v14.5h-10.89c-0.673-0.317-1.415-0.509-2.207-0.509c-0.489,0-0.954,0.09-1.403,0.217V24.488H92.764z M63.264,10.988 h14.5v13h-14.5V10.988z M63.264,24.488h14.5v14.363c-0.104,0.041-0.203,0.089-0.304,0.137H63.264V24.488z M63.264,39.488h13.35 c-1.299,0.948-2.155,2.472-2.155,4.2c0,0.9,0.25,1.735,0.653,2.475l-10.938,7.825h-0.91V39.488z M63.475,54.488l-0.211,0.15v-0.15 H63.475z M59.996,54.488h2.769v0.509l-1.442,1.032C60.982,55.43,60.535,54.91,59.996,54.488z M48.264,50.411l3.543,3.577h-3.543 V50.411z M56.803,55.363c1.77,0,3.209,1.439,3.209,3.209s-1.439,3.209-3.209,3.209c-1.77,0-3.209-1.439-3.209-3.209 S55.033,55.363,56.803,55.363z M48.264,10.988h14.5v13h-14.5V10.988z M48.264,24.488h14.5v14.5h-14.5V24.488z M62.764,39.488v14.5 h-3.541c-0.727-0.386-1.542-0.625-2.42-0.625c-0.815,0-1.577,0.205-2.264,0.539l-6.274-6.334v-8.08H62.764z M47.764,47.064 l-7.504-7.576h7.504V47.064z M33.264,10.988h14.5v13h-14.5V10.988z M47.764,24.488v14.5h-8l-1.448-1.462 c0.333-0.686,0.535-1.444,0.535-2.256c0-2.872-2.337-5.209-5.209-5.209c-0.129,0-0.251,0.029-0.378,0.038v-5.611H47.764z M30.434,35.271c0-1.463,0.99-2.688,2.331-3.071v6.143C31.424,37.957,30.434,36.733,30.434,35.271z M33.264,32.099 c0.125-0.015,0.249-0.038,0.378-0.038c1.77,0,3.209,1.439,3.209,3.209c0,1.77-1.439,3.209-3.209,3.209 c-0.129,0-0.253-0.023-0.378-0.038V32.099z M18.264,10.988h14.5v13h-14.5V10.988z M18.264,24.488h14.5v5.662 c-2.453,0.42-4.331,2.549-4.331,5.12c0,0.858,0.229,1.656,0.597,2.37l-0.931,1.348h-9.836L18.264,24.488L18.264,24.488z M27.755,39.488l-9.49,13.736V39.488H27.755z M17.764,10.988v13H3.14v0.5h14.624v14.5H3.14v0.5h14.624v14.46l-0.028,0.04H3.14v0.5 h14.251l-2.235,3.234c-0.906-0.765-2.061-1.242-3.335-1.242c-2.872,0-5.209,2.337-5.209,5.209c0,1.426,0.578,2.719,1.51,3.66 l-3.544,3.639H3.14v0.5h0.951L3,70.608v-59.62H17.764z M8.612,61.689c0-1.77,1.439-3.209,3.209-3.209s3.209,1.439,3.209,3.209 s-1.439,3.209-3.209,3.209S8.612,63.459,8.612,61.689z M17.764,83.988H3.14v0.5h14.624v13.25H3V73.473l3.882-3.984h10.882V83.988z M7.369,68.988l2.433-2.498c0.621,0.264,1.303,0.408,2.019,0.408c2.872,0,5.209-2.337,5.209-5.209c0-0.842-0.219-1.625-0.575-2.328 l1.309-1.895v11.521L7.369,68.988L7.369,68.988z M32.764,97.738h-14.5v-13.25h14.5V97.738z M32.764,83.988h-14.5v-14.5h14.5V83.988 z M32.764,68.988h-14.5V56.743l1.558-2.255h12.942V68.988z M20.168,53.988l10.018-14.5h0.425c0.629,0.453,1.359,0.766,2.153,0.902 v13.598H20.168z M47.764,97.738h-14.5v-13.25h14.5V97.738z M47.764,83.988h-14.5v-14.5h14.5V83.988z M47.764,68.988h-14.5v-14.5 h14.5V68.988z M33.264,53.988V40.441c0.127,0.009,0.249,0.038,0.378,0.038c1.134,0,2.176-0.374,3.032-0.991h0.77l10.32,10.418 v4.082H33.264z M62.764,97.738h-14.5v-13.25h14.5V97.738z M62.764,83.988h-14.5v-14.5h14.5V83.988z M48.264,68.988v-14.5h4.039 l0.628,0.634c-0.822,0.921-1.337,2.122-1.337,3.45c0,2.872,2.337,5.209,5.209,5.209s5.209-2.337,5.209-5.209 c0-0.186-0.036-0.359-0.054-0.538l0.807-0.577v11.531H48.264z M77.764,97.738h-14.5v-13.25h14.5V97.738z M77.764,83.988h-14.5 v-14.5h14.5V83.988z M77.764,68.988h-14.5V57.098l3.648-2.609h10.852V68.988z M67.613,53.988l8.78-6.281 c0.413,0.337,0.867,0.619,1.37,0.818v5.463H67.613z M92.764,97.738h-14.5v-13.25h14.5V97.738z M92.764,83.988h-14.5v-14.5h14.5 V83.988z M92.764,68.988h-14.5v-14.5h14.5V68.988z M78.264,53.988V48.68c0.449,0.127,0.914,0.217,1.403,0.217 c1.46,0,2.776-0.607,3.724-1.579l9.373,5.931v0.739H78.264z M93.264,97.738v-13.25h12.321v-0.5H93.264v-14.5h12.321v-0.5H93.264 v-14.5h1.459l2.756,1.743c-0.359,0.707-0.582,1.495-0.582,2.341c0,2.872,2.338,5.209,5.209,5.209c1.407,0,2.682-0.566,3.62-1.477 v35.434H93.264z"/> </g> </g>
</svg>