<!DOCTYPE svg PUBLIC "-//W3C//DTD SVG 1.1//EN" "http://www.w3.org/Graphics/SVG/1.1/DTD/svg11.dtd">
<!-- Uploaded to: SVG Repo, www.svgrepo.com, Transformed by: SVG Repo Mixer Tools -->
<svg width="800px" height="800px" viewBox="0 0 24 24" id="lock-check" xmlns="http://www.w3.org/2000/svg" class="icon multi-color" fill="#000000">
<g id="SVGRepo_bgCarrier" stroke-width="0"/>
<g id="SVGRepo_tracerCarrier" stroke-linecap="round" stroke-linejoin="round"/>
<g id="SVGRepo_iconCarrier">
<path id="tertiary-fill" d="M6,9H8A0,0,0,0,1,8,9V21a0,0,0,0,1,0,0H6a1,1,0,0,1-1-1V10A1,1,0,0,1,6,9Z" style="fill: #b7b7b7; stroke-width: 2;"/>
<path id="primary-stroke" d="M18,21H6a1,1,0,0,1-1-1V10A1,1,0,0,1,6,9H18a1,1,0,0,1,1,1V20A1,1,0,0,1,18,21ZM16,9V7a4,4,0,0,0-4-4h0A4,4,0,0,0,8,7V9" style="fill: none; stroke: #FFFFFF; stroke-linecap: round; stroke-linejoin: round; stroke-width: 2;"/>
<polyline id="secondary-stroke" points="9 15 11 17 15 13" style="fill: none; stroke: #2ca9bc; stroke-linecap: round; stroke-linejoin: round; stroke-width: 2;"/>
</g>
</svg>