<svg xmlns="http://www.w3.org/2000/svg" xmlns:xlink="http://www.w3.org/1999/xlink" viewBox="0 0 383.69 192.18"><defs><style>.cls-1{fill:url(#Gradiente_sem_nome_5);}.cls-2{fill:url(#Gradiente_sem_nome_5-2);}.cls-3{fill:url(#Gradiente_sem_nome_5-3);}.cls-4{fill:url(#Gradiente_sem_nome_5-4);}.cls-5{fill:url(#Gradiente_sem_nome_5-5);}.cls-6{fill:url(#Gradiente_sem_nome_5-6);}.cls-7{fill:url(#Gradiente_sem_nome_9);}.cls-8{fill:url(#Gradiente_sem_nome_9-2);}.cls-9{fill:url(#Gradiente_sem_nome_9-3);}.cls-10{fill:url(#Gradiente_sem_nome_9-4);}.cls-11{fill:#1d1d1b;}.cls-12{font-size:20.42px;fill:#163759;font-family:Axiforma-Regular, Axiforma;letter-spacing:-0.05em;}.cls-13{letter-spacing:-0.05em;}.cls-14{letter-spacing:-0.05em;}.cls-15,.cls-16,.cls-17,.cls-18,.cls-19{font-family:Axiforma-Bold, Axiforma;font-weight:700;}.cls-15{letter-spacing:-0.05em;}.cls-16{letter-spacing:-0.06em;}.cls-17{letter-spacing:-0.06em;}.cls-18{letter-spacing:-0.05em;}.cls-19{letter-spacing:-0.06em;}</style><linearGradient id="Gradiente_sem_nome_5" x1="86.48" y1="106.95" x2="86.48" y2="82.84" gradientUnits="userSpaceOnUse"><stop offset="0" stop-color="#399a43"/><stop offset="1" stop-color="#0f4421"/></linearGradient><linearGradient id="Gradiente_sem_nome_5-2" x1="101.28" y1="106.95" x2="101.28" y2="82.84" xlink:href="#Gradiente_sem_nome_5"/><linearGradient id="Gradiente_sem_nome_5-3" x1="112.62" y1="106.95" x2="112.62" y2="82.84" xlink:href="#Gradiente_sem_nome_5"/><linearGradient id="Gradiente_sem_nome_5-4" x1="128.09" y1="106.95" x2="128.09" y2="82.84" xlink:href="#Gradiente_sem_nome_5"/><linearGradient id="Gradiente_sem_nome_5-5" x1="144.22" y1="106.95" x2="144.22" y2="82.84" xlink:href="#Gradiente_sem_nome_5"/><linearGradient id="Gradiente_sem_nome_5-6" x1="287.05" y1="62.47" x2="287.84" y2="113.7" xlink:href="#Gradiente_sem_nome_5"/><linearGradient id="Gradiente_sem_nome_9" x1="120.17" y1="129.09" x2="120.17" y2="85.34" gradientUnits="userSpaceOnUse"><stop offset="0" stop-color="#163759"/><stop offset="1" stop-color="#0986b0"/></linearGradient><linearGradient id="Gradiente_sem_nome_9-2" x1="147.05" y1="129.09" x2="147.05" y2="85.34" xlink:href="#Gradiente_sem_nome_9"/><linearGradient id="Gradiente_sem_nome_9-3" x1="248.43" y1="129.09" x2="248.43" y2="85.34" xlink:href="#Gradiente_sem_nome_9"/><linearGradient id="Gradiente_sem_nome_9-4" x1="201.87" y1="129.09" x2="201.87" y2="85.34" xlink:href="#Gradiente_sem_nome_9"/></defs><g id="Camada_2" data-name="Camada 2"><path class="cls-1" d="M93.16,78.12l-1.51,1.56a5.76,5.76,0,0,0-4.05-1.5c-2.65,0-5.31,2-5.31,7.45s1.8,7.49,5,7.49a7.17,7.17,0,0,0,3.52-.83V86.71H87.58l-.3-2.07h6.09v8.94a11.87,11.87,0,0,1-6,1.63c-4.77,0-7.75-3.19-7.75-9.58,0-6.22,3.76-9.55,8-9.55A8,8,0,0,1,93.16,78.12Z"/><path class="cls-2" d="M105.05,80.59,104.59,83a4.7,4.7,0,0,0-1.23-.16c-1.77,0-2.79,1.26-3.38,4v8.08H97.51V80.75h2.12l.24,2.87c.75-2.12,2.06-3.19,3.78-3.19A5.89,5.89,0,0,1,105.05,80.59Z"/><path class="cls-3" d="M118.92,87.81c0,4.37-2.31,7.4-6.3,7.4s-6.31-2.9-6.31-7.38,2.31-7.4,6.33-7.4S118.92,83.33,118.92,87.81Zm-10,0c0,3.68,1.29,5.4,3.65,5.4s3.64-1.72,3.64-5.42-1.28-5.4-3.62-5.4S109,84.13,109,87.83Z"/><path class="cls-4" d="M133.41,94.89h-2.12l-.18-2.2a4.75,4.75,0,0,1-4.4,2.52c-2.47,0-3.95-1.55-3.95-4.32V80.75h2.47v9.87c0,1.94.64,2.66,2.17,2.66a4.25,4.25,0,0,0,3.54-2.44V80.75h2.47Z"/><path class="cls-5" d="M150.08,87.81c0,4.29-1.91,7.4-5.55,7.4a4.59,4.59,0,0,1-3.71-1.61v6.71l-2.47.29V80.75h2.12l.19,1.91a5.15,5.15,0,0,1,4.19-2.23C148.6,80.43,150.08,83.35,150.08,87.81Zm-2.66,0c0-3.68-1.07-5.42-3.19-5.42a4.3,4.3,0,0,0-3.41,2.2v6.89a3.66,3.66,0,0,0,3.11,1.72C146.19,93.2,147.42,91.51,147.42,87.81Z"/><path class="cls-6" d="M304.11,80.69v41.12H292V81.21A10.32,10.32,0,0,0,282,70.8h-.12a14,14,0,0,0-3.2.37,9.43,9.43,0,0,0-3.58,1.71l-4.82-9.76a24.48,24.48,0,0,1,25.91,1.68.44.44,0,0,0,.1.08A19.47,19.47,0,0,1,304.11,80.69Z"/><rect class="cls-7" x="114.12" y="29.8" width="12.09" height="46.42"/><path class="cls-8" d="M178.65,90.39a32.26,32.26,0,0,1-63.2,9.15h12.66a20.46,20.46,0,0,0,38.77-9.15c0-.46,0-.92,0-1.38-.66-9.87-9.26-17.33-19.14-17.33H134.38V59.6h18a19,19,0,0,1,8.7,2.06,32.51,32.51,0,0,1,11.57,10A32.13,32.13,0,0,1,178.65,90.39Z"/><path class="cls-9" d="M271,81.54v41.11H258.92V82a10.3,10.3,0,0,0-10-10.4h-.12a14.08,14.08,0,0,0-3.2.37,10.21,10.21,0,0,0-7.64,10v40.61H225.85V82a19.41,19.41,0,0,1,5.24-13.46,24.83,24.83,0,0,1,3.37-2.94,24.5,24.5,0,0,1,28.61,0l.11.07A19.51,19.51,0,0,1,271,81.54Z"/><path class="cls-10" d="M216.47,61.4V73.92s-9.93-3.87-15.07,3a10.84,10.84,0,0,0-2.05,6.55v39.22H187.27V59.35h12.08V64.8S203.66,59.32,216.47,61.4Z"/><line class="cls-11" x1="275.09" y1="72.88" x2="270.27" y2="63.12"/><text class="cls-12" transform="translate(51.3 155.23)">N<tspan class="cls-13" x="14.81" y="0">ó</tspan><tspan class="cls-14" x="26.94" y="0">s </tspan><tspan class="cls-15" x="39.21" y="0">D</tspan><tspan class="cls-16" x="53.92" y="0">E</tspan><tspan class="cls-17" x="65.67" y="0">C</tspan><tspan class="cls-18" x="80.06" y="0">OLAM</tspan><tspan class="cls-19" x="139.36" y="0">O</tspan><tspan class="cls-15" x="155.51" y="0">S</tspan><tspan class="cls-14" x="166.87" y="0" xml:space="preserve"> seu negócio</tspan></text></g></svg>